# xmcd
#
# Track frame offsets: 
#        150
#        12630
#        24119
#        36953
#        47786
#        63732
#        74532
#        85369
#        94955
#        107547
#        120287
#        153842
#
# Disc length: 2280 seconds
#
# Revision: 0
# Processed by: cddbd v1.5.2PL0 Copyright (c) Steve Scherf et al.
# Submitted via: ExactAudioCopy v0.99pb4
#
DISCID=9908e60c
DTITLE=James Brown - James Brown 3 CD Playlist Plus - Disc 1
DYEAR=2008
DGENRE=Soul
TTITLE0=Please, Please, Please
TTITLE1=Try Me
TTITLE2=Think
TTITLE3=Bewildered
TTITLE4=Night Train
TTITLE5=Prisoner Of Love
TTITLE6=Out Of Sight
TTITLE7=Papa's Got A Brand New Bag, Pt. 1
TTITLE8=I Got You (I Feel Good)
TTITLE9=It's A Man's Man's Man's World
TTITLE10=Cold Sweat
TTITLE11=Get It Together
EXTD=
EXTT0=
EXTT1=
EXTT2=
EXTT3=
EXTT4=
EXTT5=
EXTT6=
EXTT7=
EXTT8=
EXTT9=
EXTT10=
EXTT11=
PLAYORDER=
